HIERARCHY
ROOT root
{
	OFFSET 0.000000 0.000000 0.000000
	CHANNELS 6 Xposition Yposition Zposition Zrotation Yrotation Xrotation
	JOINT lhip
	{
		OFFSET 0.058581 -0.082280 -0.017664
		CHANNELS 3 Zrotation Yrotation Xrotation
		JOINT lknee
		{
			OFFSET 0.043451 -0.386469 0.008037
			CHANNELS 3 Zrotation Yrotation Xrotation
			JOINT lankle
			{
				OFFSET -0.014790 -0.426874 -0.037428
				CHANNELS 3 Zrotation Yrotation Xrotation
				JOINT ltoe
				{
					OFFSET 0.041054 -0.060286 0.122042
					CHANNELS 3 Zrotation Yrotation Xrotation
					End Site
					{
						OFFSET 0.000000 0.000000 0.000000
					}
				}
			}
		}
	}
	JOINT rhip
	{
		OFFSET -0.060310 -0.090513 -0.013543
		CHANNELS 3 Zrotation Yrotation Xrotation
		JOINT rknee
		{
			OFFSET -0.043257 -0.383688 -0.004843
			CHANNELS 3 Zrotation Yrotation Xrotation
			JOINT rankle
			{
				OFFSET 0.019056 -0.420046 -0.034562
				CHANNELS 3 Zrotation Yrotation Xrotation
				JOINT rtoe
				{
					OFFSET -0.034840 -0.062106 0.130323
					CHANNELS 3 Zrotation Yrotation Xrotation
					End Site
					{
						OFFSET 0.000000 0.000000 0.000000
					}
				}
			}
		}
	}
	JOINT lowerback
	{
		OFFSET 0.004439 0.124404 -0.038385
		CHANNELS 3 Zrotation Yrotation Xrotation
		JOINT upperback
		{
			OFFSET 0.004488 0.137956 0.026820
			CHANNELS 3 Zrotation Yrotation Xrotation
			JOINT chest
			{
				OFFSET -0.002265 0.056032 0.002855
				CHANNELS 3 Zrotation Yrotation Xrotation
				JOINT lowerneck
				{
					OFFSET -0.013390 0.211636 -0.033468
					CHANNELS 3 Zrotation Yrotation Xrotation
					JOINT upperneck
					{
						OFFSET 0.010113 0.088937 0.050410
						CHANNELS 3 Zrotation Yrotation Xrotation
						End Site
						{
							OFFSET 0.000000 0.000000 0.000000
						}
					}
				}
				JOINT lclavicle
				{
					OFFSET 0.071702 0.114000 -0.018898
					CHANNELS 3 Zrotation Yrotation Xrotation
					JOINT lshoulder
					{
						OFFSET 0.122921 0.045205 -0.019046
						CHANNELS 3 Zrotation Yrotation Xrotation
						JOINT lelbow
						{
							OFFSET 0.255332 -0.015649 -0.022946
							CHANNELS 3 Zrotation Yrotation Xrotation
							JOINT lwrist
							{
								OFFSET 0.265709 0.012698 -0.007375
								CHANNELS 3 Zrotation Yrotation Xrotation
								End Site
								{
									OFFSET 0.000000 0.000000 0.000000
								}
							}
						}
					}
				}
				JOINT rclavicle
				{
					OFFSET -0.082954 0.112472 -0.023707
					CHANNELS 3 Zrotation Yrotation Xrotation
					JOINT rshoulder
					{
						OFFSET -0.113228 0.046853 -0.008472
						CHANNELS 3 Zrotation Yrotation Xrotation
						JOINT relbow
						{
							OFFSET -0.260127 -0.014369 -0.031269
							CHANNELS 3 Zrotation Yrotation Xrotation
							JOINT rwrist
							{
								OFFSET -0.269108 0.006794 -0.006027
								CHANNELS 3 Zrotation Yrotation Xrotation
								End Site
								{
									OFFSET 0.000000 0.000000 0.000000
								}
							}
						}
					}
				}
			}
		}
	}
}
MOTION
Frames: 8
Frame Time: 0.033333
-0.030277 0.491983 0.998020 -179.517802 -3.442846 92.004392 2.743969 3.645646 -4.347495 -5.180937 -3.709316 5.265288 6.024748 10.826150 -13.808904 0.000000 -0.000000 0.000000 -7.083155 -4.429793 -3.914851 -2.309455 -1.158583 12.994134 4.396150 -6.861974 -7.195033 0.000000 -0.000000 0.000000 -5.297596 1.303438 -3.016036 1.961243 -3.581227 11.859188 -0.724567 -1.759451 -6.683437 -1.260446 2.173128 3.545338 1.142858 1.166684 8.126722 -25.948803 4.210523 -0.421458 -62.200374 -8.762869 15.524422 10.286703 -24.006613 2.733404 -23.045366 -10.890795 7.011507 29.882385 1.272672 -0.153521 55.445756 7.579664 11.029980 -11.823814 18.075662 -6.975972 16.297115 9.763502 9.931293 
-0.027246 0.493576 0.998733 -179.884482 -3.598007 91.905125 2.893879 3.589044 -3.949542 -5.345307 -3.670042 5.049217 5.218961 11.194248 -13.679600 0.000000 -0.000000 0.000000 -7.080336 -4.407961 -3.425812 -2.158321 -0.147437 12.410521 3.984681 -7.842412 -7.764463 0.000000 -0.000000 0.000000 -5.181506 1.645232 -3.053689 1.766005 -3.482335 11.998386 -1.052329 -1.697982 -6.068413 -0.938133 2.628792 0.341401 2.568162 1.803606 9.595547 -26.468819 4.110979 -0.694783 -61.382202 -7.458126 17.753774 8.397629 -25.789231 8.387595 -12.533320 -9.292663 10.470651 30.875608 0.968703 -1.049011 54.346934 7.416301 11.391306 -10.615393 19.359456 -5.884855 12.810600 9.484984 9.597445 
-0.024103 0.494689 0.998908 -179.819549 -3.666933 92.017364 3.049830 3.381717 -3.943124 -5.344029 -3.670361 4.957639 5.131580 11.279499 -13.599549 0.000000 -0.000000 0.000000 -6.957395 -4.564252 -3.037457 -2.192046 -0.274997 11.771324 4.024920 -7.967644 -7.579537 0.000000 -0.000000 0.000000 -5.130614 1.753937 -3.150674 1.758575 -3.598684 11.941963 -1.076076 -1.718369 -6.223128 -0.818235 2.363265 0.642430 2.878808 1.882346 9.639218 -26.447983 4.252104 -0.636002 -61.668441 -7.119453 17.896598 8.076388 -26.066274 8.590494 -12.785896 -9.496534 10.344852 30.845648 0.947162 -1.064019 54.276531 7.525057 11.401594 -10.206178 19.390649 -5.764739 12.838512 9.854300 9.793917 
-0.020084 0.495359 0.998942 -179.601781 -3.631130 92.026784 3.404406 3.120365 -3.958918 -5.323872 -3.395040 4.953421 5.056825 11.155435 -13.467367 0.000000 -0.000000 0.000000 -6.728546 -4.452350 -2.401656 -2.069248 -0.517835 10.902390 3.972090 -8.077939 -7.789579 0.000000 -0.000000 0.000000 -5.030853 1.844746 -3.639540 1.757099 -3.806950 12.450679 -1.110257 -1.826506 -5.836380 -0.597061 2.660045 0.219671 2.738526 1.460114 9.408775 -26.596188 3.921234 -0.236190 -61.726706 -7.344619 17.663830 7.784703 -26.203292 9.245395 -13.502774 -9.431567 10.376746 30.969510 1.433030 -0.882588 54.088662 8.018082 11.224893 -10.162637 19.394298 -5.702734 12.952145 10.014787 9.588855 
-0.017686 0.496333 0.999037 -179.630864 -3.657667 92.064621 3.522006 3.024411 -3.890094 -5.291266 -3.335302 4.880307 4.943896 11.243046 -13.438068 0.000000 -0.000000 0.000000 -6.637120 -4.406917 -2.066831 -2.020117 -0.547079 10.422830 3.919435 -8.192886 -7.833050 0.000000 -0.000000 0.000000 -4.989554 1.911829 -3.480452 1.719034 -3.782962 12.065000 -1.122235 -1.768916 -5.890891 -0.647743 2.368751 0.280859 2.875832 1.396546 9.517563 -26.530158 4.064171 -0.176454 -61.924219 -7.131470 17.831650 7.485665 -26.179986 9.835309 -13.164537 -9.670866 10.306061 30.934253 1.234996 -0.831887 54.120654 7.977240 11.187841 -9.962404 19.510776 -5.287547 12.524147 10.111878 9.627283 
-0.015573 0.498001 0.998619 -179.651480 -3.764140 91.946570 3.438830 2.691635 -3.499051 -5.058848 -3.166939 4.623284 4.849242 11.432741 -13.461489 0.000000 -0.000000 0.000000 -6.707105 -4.318242 -1.485198 -1.923123 -0.558404 9.900875 3.961411 -8.314454 -7.831479 0.000000 -0.000000 0.000000 -4.847106 2.136531 -3.596713 1.583020 -3.821563 12.210670 -1.160488 -1.888115 -5.780931 -0.691559 2.622922 0.517612 2.931567 1.207652 9.188418 -26.494607 3.824354 0.087540 -62.212489 -7.044602 17.687689 7.599653 -26.187800 10.044316 -13.980030 -9.617717 10.576638 30.673633 1.495355 -0.609945 54.242468 7.855735 11.147704 -10.081350 19.718648 -5.207073 12.989465 10.123384 9.516549 
-0.013435 0.499343 0.998505 -179.599501 -3.835674 91.906882 3.480919 2.606397 -3.305219 -5.028462 -3.199297 4.508707 4.796402 11.595052 -13.364194 0.000000 -0.000000 0.000000 -6.651133 -4.533358 -1.266831 -1.901820 -0.287874 9.729841 4.096643 -8.429510 -7.500092 0.000000 -0.000000 0.000000 -4.784148 2.288332 -3.212094 1.540044 -3.806148 11.791549 -1.187439 -1.857968 -5.863196 -0.714021 2.210437 0.412034 2.948523 1.330624 9.199835 -26.590773 4.033582 -0.187476 -62.188788 -6.784221 17.951065 7.439060 -25.908673 10.400398 -13.584688 -9.706061 10.750599 30.625042 1.170672 -0.895056 54.208886 7.777202 11.334672 -9.795761 19.455323 -4.836850 12.724183 10.093969 9.799146 
-0.011099 0.499359 0.998668 -179.214504 -3.804760 92.121336 3.732274 2.827778 -3.687133 -5.157055 -3.517854 4.660102 4.719811 11.339309 -13.370664 0.000000 -0.000000 0.000000 -6.387196 -4.296696 -1.390633 -1.930076 -0.518728 9.677484 3.932602 -8.480600 -8.082314 0.000000 -0.000000 0.000000 -4.799117 2.037773 -3.167216 1.597371 -3.760794 11.622028 -1.115704 -1.886137 -5.983418 -0.758260 2.198516 0.287711 2.936523 1.454637 9.379113 -26.862308 4.047690 -0.024256 -61.923956 -6.837880 17.876133 7.656016 -26.024426 10.347986 -13.263113 -9.646187 10.389506 30.663488 1.179706 -0.873668 54.022634 7.524252 11.341666 -9.733916 19.531828 -4.404228 12.903286 9.586532 9.500141 
